<svg width="39" height="41" viewBox="0 0 39 41" fill="none" xmlns="http://www.w3.org/2000/svg">
<path d="M11.3128 26.34C11.7942 20.1819 16.7671 15.2117 22.9252 14.7316C25.602 14.5222 28.1178 15.1515 30.2451 16.3774C35.7124 7.45223 31.0275 0.510437 21.7333 0.510437H1.79497C0.803289 0.510437 0 1.31373 0 2.30541V36.8888C0 37.7706 0.641065 38.5268 1.51239 38.6615C5.62435 39.2987 9.55053 38.3646 13.9529 35.1396C12.0834 32.7467 11.0538 29.667 11.3128 26.34Z" fill="#363F73"/>
<path d="M30.2463 16.3761C29.9991 16.7791 29.7335 17.1872 29.4444 17.598C23.3346 26.2838 18.3998 31.882 13.9529 35.1409C16.2712 38.1094 19.8807 40.0209 23.9378 40.0209C30.9319 40.0209 36.602 34.3507 36.602 27.3566C36.602 22.6598 34.043 18.5636 30.2463 16.3761Z" fill="#26ACA9"/>
</svg>
