<?xml version="1.0" encoding="utf-8"?>
<!-- Generator: Adobe Illustrator 27.2.0, SVG Export Plug-In . SVG Version: 6.00 Build 0)  -->
<svg version="1.1" id="Capa_1" xmlns="http://www.w3.org/2000/svg" xmlns:xlink="http://www.w3.org/1999/xlink" x="0px" y="0px"
	 viewBox="0 0 2000 800" style="enable-background:new 0 0 2000 800;" xml:space="preserve">
<style type="text/css">
	.st0{fill:#3D52A5;}
	.st1{fill:#45CEC7;}
</style>
<g id="PRIMARY">
	<g>
		<path class="st0" d="M749.08,366.31c13.61,14.68,20.55,32.56,20.55,53.64c0,21.09-6.94,38.97-20.55,53.65
			c-13.61,14.41-30.96,21.62-51.51,21.62c-19.75,0-36.03-8.01-48.57-24.02v20.55H619.9v-202.3h29.36v79.26
			c12.81-16.28,29.09-24.28,48.57-24.28C718.39,344.43,735.47,351.63,749.08,366.31z M726.66,453.85
			c8.54-9.34,12.81-20.55,12.81-34.16c0-13.61-4.27-24.82-12.81-34.16c-8.27-9.34-19.22-13.88-32.83-13.88s-24.82,4.8-33.36,14.14
			c-8.27,9.34-12.54,20.55-12.54,33.9c0,13.61,4.27,24.82,12.54,34.16c8.54,9.34,19.75,13.88,33.36,13.88
			S718.39,463.19,726.66,453.85z"/>
		<path class="st0" d="M791.16,491.75V347.89h28.02v20.55c8.54-16.28,22.15-24.29,40.83-24.29c6.14,0,11.74,0.8,17.08,2.41
			l-2.67,28.55c-5.07-1.87-10.41-2.67-15.75-2.67c-22.42,0-38.17,15.48-38.17,45.63v73.66H791.16z"/>
		<path class="st0" d="M999.34,347.89h28.29v143.85h-28.29V472c-13.08,15.48-29.62,23.22-49.11,23.22
			c-20.55,0-37.9-7.21-51.51-21.89c-13.61-14.68-20.28-32.83-20.28-54.45s6.67-39.23,20.28-53.37
			c13.61-14.15,30.96-21.09,51.51-21.09c19.48,0,36.03,7.74,49.11,23.49V347.89z M987.59,454.12c8.81-9.34,13.08-20.82,13.08-34.43
			c0-13.34-4.27-24.82-13.08-34.16c-8.81-9.34-19.75-14.15-33.36-14.15c-13.61,0-24.82,4.81-33.36,14.15s-12.81,20.82-12.81,34.43
			c0,13.61,4.27,25.09,12.81,34.43c8.54,9.34,19.75,13.88,33.36,13.88C967.84,468.26,978.79,463.46,987.59,454.12z"/>
		<path class="st0" d="M1052.6,308.93c0-10.94,8.81-19.48,20.28-19.48c10.94,0,19.48,8.54,19.48,19.48
			c0,11.48-8.54,20.02-19.48,20.02C1061.4,328.95,1052.6,320.41,1052.6,308.93z M1087.03,491.75h-29.36V347.89h29.36V491.75z"/>
		<path class="st0" d="M1116.26,491.75V347.89h28.82v20.28c8.54-14.94,25.09-24.02,45.64-24.02c15.75,0,29.09,5.07,40.03,15.48
			c10.94,10.41,16.55,25.09,16.55,44.57v87.54h-29.63v-79.27c0-26.42-13.88-41.1-34.43-41.1c-22.15,0-37.63,17.08-37.63,41.63v78.73
			H1116.26z"/>
		<path class="st0" d="M1405.26,366.31c13.61,14.68,20.55,32.56,20.55,53.64c0,21.09-6.94,38.7-20.55,53.38
			c-13.61,14.68-30.69,21.89-51.24,21.89c-20.02,0-36.56-7.74-49.11-23.49V551h-29.36v-203.1h29.36v20.82
			c13.08-16.28,29.63-24.28,49.37-24.28C1374.83,344.43,1391.65,351.63,1405.26,366.31z M1383.37,385.53
			c-8.54-9.34-19.75-14.15-33.36-14.15s-24.82,4.81-33.36,14.15c-8.27,9.34-12.54,20.55-12.54,34.16c0,13.61,4.27,25.35,12.54,34.69
			c8.54,9.34,19.75,13.88,33.36,13.88s24.82-4.54,33.36-13.88c8.54-9.34,12.81-21.09,12.81-34.69
			C1396.18,406.08,1391.91,394.87,1383.37,385.53z"/>
		<path class="st0" d="M1459.91,366.31c14.41-14.68,32.56-22.15,54.71-22.15s40.3,7.47,54.45,22.15
			c14.41,14.68,21.62,32.29,21.62,53.38c0,21.35-7.21,39.23-21.62,53.91c-14.15,14.68-32.29,21.88-54.45,21.88
			s-40.3-7.21-54.71-21.88c-14.15-14.68-21.35-32.56-21.35-53.91C1438.56,398.6,1445.76,380.99,1459.91,366.31z M1547.45,385.79
			c-8.81-9.6-19.75-14.41-32.83-14.41c-13.08,0-24.02,4.81-33.1,14.41c-8.81,9.34-13.34,20.82-13.34,33.9
			c0,13.34,4.54,24.82,13.34,34.16c9.08,9.34,20.02,14.15,33.1,14.15c13.08,0,24.02-4.81,32.83-14.15
			c9.07-9.34,13.61-20.82,13.61-34.16C1561.06,406.61,1556.52,395.14,1547.45,385.79z"/>
		<path class="st0" d="M1723.26,289.45h29.63v202.3h-29.09v-20.02c-12.55,15.75-28.82,23.49-48.31,23.49
			c-20.55,0-37.9-7.21-51.51-21.62c-13.61-14.68-20.55-32.56-20.55-53.91c0-21.09,6.94-38.96,20.55-53.38
			c13.61-14.68,30.69-21.88,51.24-21.88c18.95,0,34.96,7.74,48.04,23.49V289.45z M1712.59,385.53
			c-8.54-9.34-19.75-14.15-33.36-14.15c-13.61,0-24.82,4.81-33.36,14.15s-12.81,20.55-12.81,34.16c0,13.61,4.27,25.35,12.81,34.69
			c8.54,9.34,19.75,13.88,33.36,13.88c13.61,0,24.82-4.54,33.36-13.88c8.54-9.34,12.81-21.09,12.81-34.69
			C1725.4,406.08,1721.13,394.87,1712.59,385.53z"/>
	</g>
	<g>
		<path class="st0" d="M333.58,446.43c3.68-47.07,41.69-85.06,88.76-88.73c20.46-1.6,39.69,3.21,55.95,12.58
			C520.08,302.06,484.27,249,413.23,249h-152.4c-7.58,0-13.72,6.14-13.72,13.72v264.34c0,6.74,4.9,12.52,11.56,13.55
			c31.43,4.87,61.44-2.27,95.09-26.92C339.47,495.4,331.6,471.86,333.58,446.43z"/>
		<path class="st1" d="M478.3,370.27c-1.89,3.08-3.92,6.2-6.13,9.34C425.47,446,387.75,488.79,353.76,513.7
			c17.72,22.69,45.31,37.3,76.32,37.3c53.46,0,96.8-43.34,96.8-96.8C526.88,418.3,507.32,386.99,478.3,370.27z"/>
	</g>
</g>
</svg>
